<svg id="Layer_1" viewBox="0 0 64 64" xmlns="http://www.w3.org/2000/svg" data-name="Layer 1"><path d="m47.59 23.034c-2.456-1.358-4.636-2.526-5.1-2.734-.156-.023-.544-.077-1.103-.146-.018.031-.036.062-.053.093-.091.162-.184.323-.276.484-.058.102-.117.204-.175.305-.099.17-.197.338-.296.506-.053.09-.106.18-.159.27-.106.178-.211.353-.317.528-.044.073-.088.146-.132.218-.114.188-.227.372-.34.556-.035.057-.07.113-.105.169-.121.195-.24.386-.358.574-.023.037-.047.074-.07.111-.128.203-.254.402-.379.596-.012.018-.023.036-.035.054-.132.206-.26.405-.386.598-.005.007-.009.014-.014.022-1.196 1.839-2.09 3.099-2.107 3.122-.188.264-.491.42-.814.42s-.627-.156-.814-.42c-.023-.032-2.378-3.344-4.587-7.111-.939-1.61-1.724-3.083-2.335-4.378-.772-1.672-1.256-3.012-1.483-4.103-.113-.496-.173-.967-.173-1.382 0-.378.021-.75.065-1.113h-2.499c-.249 0-.48.096-.65.27l-3.8 3.872c-.184.188-.279.462-.254.73l.41 4.253c.096.981-.306 1.936-1.074 2.553l-1.901 1.518c-.349.28-.441.773-.218 1.17l3.073 5.336c.091.16.229.29.392.371l3.444 1.682c1.02.503 1.658 1.561 1.632 2.697l-.162 5.003s0 .04.003.075l1.534 12.868c.013.124.054.242.115.345l3.847 6.534c.336.572.884.461 1.042.414.16-.048.681-.255.647-.919l-.187-4.025c-.041-.769.237-1.54.766-2.108l2.181-2.377c.171-.188.257-.438.238-.701l-.096-1.144c-.124-1.531.973-2.898 2.495-3.116l1.662-.232c.424-.059.752-.418.781-.853l.224-3.519c.066-1.109.752-2.072 1.787-2.508l2.801-1.146c.337-.139.565-.478.565-.841v-4.798c0-.309 0-.532 3.139-7.476.195-.434.027-.935-.392-1.165zm-21.609 11.108c.033-.551.513-.965 1.06-.937.551.034.971.509.937 1.06l-.045.729c-.032.53-.473.938-.997.938-.021 0-.042 0-.062-.002-.551-.034-.971-.509-.937-1.06l.045-.729zm1.771 15.999c-.033.003-.065.005-.098.005-.509 0-.944-.387-.994-.903l-.978-10.069c-.005-.053-.006-.105-.003-.157l.053-.866c.034-.552.515-.963 1.059-.938.552.033.971.508.938 1.059l-.048.788.97 9.99c.054.55-.349 1.039-.898 1.092z"/><path d="m27.979 11.384c0 .262.044.593.126.956.2.958.639 2.157 1.343 3.683.583 1.235 1.341 2.656 2.249 4.214 1.374 2.345 2.808 4.51 3.675 5.783 1.063-1.564 2.979-4.477 4.591-7.419.927-1.704 1.601-3.104 2.059-4.28.147-.37.266-.727.375-1.057.193-.618.314-1.2.344-1.667.003-.038.007-.076.014-.113.005-.034.002-.066.002-.1 0-4.071-3.312-7.384-7.384-7.384-3.372 0-6.312 2.27-7.147 5.52-.164.594-.245 1.215-.245 1.864zm7.392-5.321c2.936 0 5.324 2.389 5.324 5.324s-2.389 5.325-5.324 5.325-5.325-2.389-5.325-5.325 2.389-5.324 5.325-5.324z"/></svg>