<svg id="Layer_1" enable-background="new 0 0 512 512" viewBox="0 0 512 512" xmlns="http://www.w3.org/2000/svg"><path clip-rule="evenodd" d="m169.128 83.151c3.814 2.209 5.115 7.092 2.906 10.906s-7.092 5.115-10.906 2.906l-14.439-8.336c-3.814-2.209-5.115-7.092-2.906-10.906s7.092-5.115 10.906-2.906zm184.931 13.813c-3.814 2.209-8.697.908-10.906-2.906s-.908-8.697 2.906-10.906l14.439-8.336c3.814-2.209 8.697-.908 10.906 2.906s.908 8.697-2.906 10.906zm-36.174-42.018c-2.192 3.814-7.061 5.129-10.875 2.938-3.814-2.192-5.129-7.061-2.938-10.875l8.336-14.439c2.192-3.814 7.061-5.129 10.875-2.938 3.814 2.192 5.129 7.061 2.938 10.875zm-52.291-18.273c0 4.418-3.582 8-8 8s-8-3.582-8-8v-16.673c0-4.418 3.582-8 8-8s8 3.582 8 8zm-54.479 10.304c2.209 3.814.908 8.697-2.906 10.906s-8.697.908-10.906-2.906l-8.336-14.439c-2.209-3.814-.908-8.697 2.906-10.906s8.697-.908 10.906 2.906zm46.479 13.622c39.091 0 70.781 31.69 70.781 70.781 0 39.311-25.112 36.961-28.518 94.906h-22.04v-69.937h8.448c13.462 0 24.448-10.986 24.448-24.448s-10.986-24.448-24.448-24.448-24.448 10.986-24.448 24.448v8.448h-8.446v-8.448c0-13.462-10.986-24.448-24.448-24.448-13.463 0-24.448 10.985-24.448 24.448s10.986 24.448 24.448 24.448h8.448v69.937h-22.041c-3.406-57.944-28.518-55.595-28.518-94.906.001-39.091 31.69-70.781 70.782-70.781zm4.223 165.687v-69.937h-8.446v69.937zm-24.446-85.937v-8.448c0-4.63-3.818-8.448-8.448-8.448s-8.448 3.818-8.448 8.448 3.818 8.448 8.448 8.448zm40.446 0h8.448c4.63 0 8.448-3.818 8.448-8.448s-3.818-8.448-8.448-8.448-8.448 3.818-8.448 8.448zm-61.566 101.937c1.76 4.108 5.848 7.005 10.581 7.005h61.524c4.732 0 8.821-2.897 10.58-7.005zm60.603 30.009c4.732 0 8.821-2.896 10.58-7.004h-59.68c1.76 4.107 5.848 7.004 10.581 7.004zm-37.305 16c1.759 4.108 5.848 7.006 10.581 7.006h14.927c4.732 0 8.821-2.897 10.581-7.006zm82.832-94.464c-4.038 10.213-5.75 20.198-6.524 32.939v11.02c0 9.195-4.544 17.354-11.502 22.351 0 9.426-4 17.766-11.796 23.212 0 1.762-.103 3.407-.404 5.148 2.412.354 4.273 2.44 4.273 4.947v20.836c0 2.754-2.246 5-5 5h-20.836c-2.754 0-5-2.246-5-5v-2.989c-.178.003-.356.007-.535.007h-14.927c-1.263 0-2.505-.087-3.724-.253v3.236c0 2.754-2.246 5-5 5h-20.836c-2.754 0-5-2.246-5-5v-20.836c0-2.754 2.246-5 5-5h2.453c-.295-1.724-.395-3.353-.395-5.096-7.795-5.446-11.796-13.786-11.796-23.212-6.958-4.997-11.502-13.156-11.502-22.351v-11.016c-.954-15.685-3.325-27.194-9.711-40.091v313.317h25.933v-118.648c0-8.998 7.339-16.337 16.337-16.337h48.223c8.998 0 16.337 7.339 16.337 16.337v118.648h25.933v-306.169zm-258.524-5.287c-3.855 0-7 3.145-7 7v297.456c0 3.855 3.144 7 7 7h109.763v-311.456zm49.788 170.172c0 2.754-2.246 5-5 5h-20.836c-2.754 0-5-2.246-5-5v-20.836c0-2.754 2.246-5 5-5h20.836c2.754 0 5 2.246 5 5zm0-49.577c0 2.754-2.246 5-5 5h-20.836c-2.754 0-5-2.246-5-5v-20.836c0-2.754 2.246-5 5-5h20.836c2.754 0 5 2.246 5 5zm50.022 49.577c0 2.754-2.246 5-5 5h-20.836c-2.754 0-5-2.246-5-5v-20.836c0-2.754 2.246-5 5-5h20.836c2.754 0 5 2.246 5 5zm0-49.577c0 2.754-2.246 5-5 5h-20.837c-2.754 0-5-2.246-5-5v-20.836c0-2.754 2.246-5 5-5h20.836c2.754 0 5 2.246 5 5v20.836zm0-65.297c0 2.754-2.246 5-5 5h-70.858c-2.754 0-5-2.246-5-5v-19.688c0-2.754 2.246-5 5-5h70.858c2.754 0 5 2.246 5 5zm284.476-55.298h-109.762v311.456h109.762c3.855 0 7-3.145 7-7v-297.456c0-3.856-3.144-7-7-7zm-68.974 170.172c0 2.754-2.246 5-5 5h-20.836c-2.754 0-5-2.246-5-5v-20.836c0-2.754 2.246-5 5-5h20.836c2.754 0 5 2.246 5 5zm0-49.577c0 2.754-2.246 5-5 5h-20.836c-2.754 0-5-2.246-5-5v-20.836c0-2.754 2.246-5 5-5h20.836c2.754 0 5 2.246 5 5zm50.022 49.577c0 2.754-2.246 5-5 5h-20.836c-2.754 0-5-2.246-5-5v-20.836c0-2.754 2.246-5 5-5h20.836c2.754 0 5 2.246 5 5zm0-49.577c0 2.754-2.246 5-5 5h-20.836c-2.754 0-5-2.246-5-5v-20.836c0-2.754 2.246-5 5-5h20.836c2.754 0 5 2.246 5 5zm3.827-63.892c0 2.754-2.246 5-5 5h-78.512c-2.754 0-5-2.246-5-5v-22.498c0-2.754 2.246-5 5-5h78.512c2.754 0 5 2.246 5 5z" fill-rule="evenodd"/></svg>